# xmcd
#
# Track frame offsets: 
#        182
#        16102
#        38197
#        55755
#        70107
#        87227
#        103787
#        120652
#        138150
#        156020
#        187872
#
# Disc length: 2798 seconds
#
# Revision: 55
# Processed by: cddbd v1.5.2PL0 Copyright (c) Steve Scherf et al.
# Submitted via: ExactAudioCopyFreeDBPlugin 1.0
#
DISCID=820aec0b
DTITLE=Lenny Kravitz - Are you gonna go my way
DYEAR=1993
DGENRE=Blues
TTITLE0=Are you gonna go my way
TTITLE1=Believe
TTITLE2=Come on and love me
TTITLE3=Heaven help
TTITLE4=Just be a woman
TTITLE5=Is there any love in your heart
TTITLE6=Black girl
TTITLE7=My love
TTITLE8=Sugar
TTITLE9=Sister
TTITLE10=Eleutheria
EXTD=
EXTT0=
EXTT1=
EXTT2=
EXTT3=
EXTT4=
EXTT5=
EXTT6=
EXTT7=
EXTT8=
EXTT9=
EXTT10=
PLAYORDER=
